<?xml version="1.0" encoding="utf-8"?>
<!-- Generator: Adobe Illustrator 22.0.1, SVG Export Plug-In . SVG Version: 6.00 Build 0)  -->
<svg version="1.1" id="Layer_1" xmlns="http://www.w3.org/2000/svg" xmlns:xlink="http://www.w3.org/1999/xlink" x="0px" y="0px"
	 viewBox="0 0 104 99" style="enable-background:new 0 0 104 99;" xml:space="preserve">
<style type="text/css">
	.st0{fill:#E0301E;}
	.st1{fill:#2D2D2D;}
	.st2{fill:#464646;}
	.st3{fill:#D04A02;}
	.st4{fill:#7D7D7D;}
	.st5{fill:#DB536A;}
	.st6{fill:#FFFFFF;}
</style>
<g>
	<path class="st1" d="M52,13.5c-19.9,0-36,16.1-36,36c0,9.8,3.9,18.6,10.3,25.1c6.5,6.7,15.7,10.9,25.7,10.9
		c10.1,0,19.2-4.2,25.8-10.9C84.1,68.1,88,59.3,88,49.5C88,29.6,71.9,13.5,52,13.5z M69.9,69.7c-5.1-2.2-11.2-3.5-17.9-3.5
		c-6.7,0-12.8,1.3-17.9,3.5c-5.6-5-9.1-12.2-9.1-20.2c0-14.9,12.1-27,27-27c14.9,0,27,12.1,27,27C79,57.5,75.5,64.7,69.9,69.7z"/>
	<path class="st1" d="M52,33.3c-6.6,0-11.9,5.3-11.9,11.9C40.1,51.7,45.4,57,52,57c6.6,0,11.9-5.3,11.9-11.9
		C63.9,38.6,58.6,33.3,52,33.3z"/>
</g>
</svg>
