<?xml version="1.0" encoding="utf-8"?>
<!-- Generator: Adobe Illustrator 22.0.1, SVG Export Plug-In . SVG Version: 6.00 Build 0)  -->
<svg version="1.1" id="Layer_1" xmlns="http://www.w3.org/2000/svg" xmlns:xlink="http://www.w3.org/1999/xlink" x="0px" y="0px"
	 viewBox="0 0 104 99" style="enable-background:new 0 0 104 99;" xml:space="preserve">
<style type="text/css">
	.st0{fill:#d04a02;}
	.st1{fill:#D04A02;}
	.st2{fill:#2D2D2D;}
	.st3{fill:#464646;}
	.st4{fill:#E0301E;}
	.st5{fill:#7D7D7D;}
	.st6{fill:#DB536A;}
</style>
<path id="Fill-v2_5_" class="st0" d="M25.1,36.1L26,75.9c0.1,2.7,1.2,5,2.9,6.8c0.4,0.4,0.9,0.8,1.4,1.2c1,0.7,2.2,1.2,3.5,1.4
	c0.6,0.1,1.3,0.2,1.9,0.2h32.5c2.7,0,5.1-1.1,6.8-2.8c1.8-1.7,2.9-4.1,2.9-6.8l0.9-39.8H25.1z M81.4,18H69.1c0-2.5-2-4.5-4.5-4.5
	H39.4c-2.5,0-4.5,2-4.5,4.5H22.6c-2.5,0-4.5,2-4.5,4.5c0,2.5,2,4.5,4.5,4.5h58.9c2.5,0,4.5-2,4.5-4.5C85.9,20,83.9,18,81.4,18z"/>
</svg>
